<svg xmlns="http://www.w3.org/2000/svg" style="display:none">
  <!-- Search -->
  <symbol id="icon-search" viewBox="0 0 24 24">
    <circle cx="11" cy="11" r="5"
      fill="none" stroke="currentColor"
      stroke-width="2" stroke-linecap="round" stroke-linejoin="round" />
    <line x1="15" y1="15" x2="20" y2="20"
      stroke="currentColor" stroke-width="2"
      stroke-linecap="round" stroke-linejoin="round" />
  </symbol>

  <!-- Saved Papers -->
  <symbol id="icon-saved-papers" viewBox="0 0 24 24">
    <path d="M8 3h6l4 4v14H8z"
      fill="none" stroke="currentColor"
      stroke-width="2" stroke-linecap="round" stroke-linejoin="round" />
    <path d="M14 3v4h4"
      fill="none" stroke="currentColor"
      stroke-width="2" stroke-linecap="round" stroke-linejoin="round" />
    <path d="M10 9v6l2-1.5L14 15V9"
      fill="none" stroke="currentColor"
      stroke-width="2" stroke-linecap="round" stroke-linejoin="round" />
  </symbol>

  <!-- Collections -->
  <symbol id="icon-collections" viewBox="0 0 24 24">
    <path d="M4 9h9l2 2h5v8H4z"
      fill="none" stroke="currentColor"
      stroke-width="2" stroke-linecap="round" stroke-linejoin="round" />
    <path d="M6 5h5l2 2h5"
      fill="none" stroke="currentColor"
      stroke-width="2" stroke-linecap="round" stroke-linejoin="round" />
    <path d="M4 13h16"
      fill="none" stroke="currentColor"
      stroke-width="2" stroke-linecap="round" stroke-linejoin="round" />
  </symbol>

  <!-- Highlights -->
  <symbol id="icon-highlights" viewBox="0 0 24 24">
    <path d="M7 15l5-5 4 4-5 5H7z"
      fill="none" stroke="currentColor"
      stroke-width="2" stroke-linecap="round" stroke-linejoin="round" />
    <path d="M12 10l4-4 2 2-4 4"
      fill="none" stroke="currentColor"
      stroke-width="2" stroke-linecap="round" stroke-linejoin="round" />
    <path d="M6 19h5"
      fill="none" stroke="currentColor"
      stroke-width="2" stroke-linecap="round" stroke-linejoin="round" />
  </symbol>

  <!-- Notes -->
  <symbol id="icon-notes" viewBox="0 0 24 24">
    <path d="M5 5h14v10H9l-4 4z"
      fill="none" stroke="currentColor"
      stroke-width="2" stroke-linecap="round" stroke-linejoin="round" />
    <path d="M9 9h6"
      fill="none" stroke="currentColor"
      stroke-width="2" stroke-linecap="round" stroke-linejoin="round" />
    <path d="M9 12h4"
      fill="none" stroke="currentColor"
      stroke-width="2" stroke-linecap="round" stroke-linejoin="round" />
  </symbol>

  <!-- Filters -->
  <symbol id="icon-filters" viewBox="0 0 24 24">
    <path d="M4 5h16l-6 6v5l-4 3v-8z"
      fill="none" stroke="currentColor"
      stroke-width="2" stroke-linecap="round" stroke-linejoin="round" />
  </symbol>

  <!-- Citations -->
  <symbol id="icon-citations" viewBox="0 0 24 24">
    <path d="M6 9h4v6H6a3 3 0 0 1-3-3 5 5 0 0 1 3-5"
      fill="none" stroke="currentColor"
      stroke-width="2" stroke-linecap="round" stroke-linejoin="round" />
    <path d="M14 9h4v6h-4a3 3 0 0 1-3-3 5 5 0 0 1 3-5"
      fill="none" stroke="currentColor"
      stroke-width="2" stroke-linecap="round" stroke-linejoin="round" />
  </symbol>

  <!-- Export -->
  <symbol id="icon-export" viewBox="0 0 24 24">
    <path d="M12 4v10"
      fill="none" stroke="currentColor"
      stroke-width="2" stroke-linecap="round" stroke-linejoin="round" />
    <path d="M8 8l4-4 4 4"
      fill="none" stroke="currentColor"
      stroke-width="2" stroke-linecap="round" stroke-linejoin="round" />
    <path d="M5 14v4h14v-4"
      fill="none" stroke="currentColor"
      stroke-width="2" stroke-linecap="round" stroke-linejoin="round" />
  </symbol>
</svg>
